<?xml version="1.0" standalone="no"?>
<!DOCTYPE svg PUBLIC "-//W3C//DTD SVG 20010904//EN"
 "http://www.w3.org/TR/2001/REC-SVG-20010904/DTD/svg10.dtd">
<svg version="1.0" xmlns="http://www.w3.org/2000/svg"
 width="431.000000pt" height="431.000000pt" viewBox="0 0 431.000000 431.000000"
 preserveAspectRatio="xMidYMid meet">
<metadata>
Created by potrace 1.11, written by Peter Selinger 2001-2013
</metadata>
<g transform="translate(0.000000,431.000000) scale(0.100000,-0.100000)"
fill="#000000" stroke="none">
<path d="M846 3069 c-291 -33 -498 -266 -500 -563 -1 -75 -2 -79 -24 -81 -43
-3 -62 -46 -34 -77 13 -15 33 -18 123 -18 97 0 109 -2 119 -19 5 -11 10 -24
10 -30 0 -17 -31 -41 -54 -41 -13 0 -31 -9 -41 -20 -15 -17 -16 -24 -7 -45 6
-14 15 -26 19 -26 5 -1 81 -2 171 -3 174 -2 182 -4 182 -53 0 -34 -25 -41
-143 -41 -69 0 -113 -5 -122 -12 -19 -16 -19 -54 0 -70 21 -17 848 -18 869 -1
40 33 18 81 -37 81 -18 1 -96 2 -175 3 -125 2 -145 4 -157 20 -14 20 -9 56 9
63 6 2 29 6 51 8 59 4 75 14 75 45 0 34 -17 51 -51 51 -15 0 -34 7 -43 15 -17
17 -13 54 6 67 7 4 124 8 261 8 234 0 248 1 267 20 24 24 24 30 6 55 -11 15
-27 19 -89 19 l-75 1 -1 77 c-1 216 -102 395 -276 493 -74 42 -131 63 -193 70
-26 4 -54 8 -62 9 -8 2 -46 0 -84 -5z"/>
<path d="M1268 2229 c-19 -11 -23 -45 -9 -68 13 -20 135 -22 161 -4 24 17 26
46 4 67 -18 18 -128 22 -156 5z"/>
<path d="M1524 2215 c-15 -22 -15 -27 -1 -48 13 -20 22 -23 83 -21 88 2 81 1
94 25 9 16 8 26 -5 45 -14 22 -22 24 -85 24 -63 0 -71 -2 -86 -25z"/>
<path d="M155 1871 c-49 -10 -92 -41 -117 -85 -32 -57 -38 -236 -9 -301 19
-43 67 -87 109 -100 38 -11 128 -7 163 8 78 33 107 97 107 238 0 133 -22 181
-102 225 -32 18 -105 25 -151 15z m91 -80 c18 -1 53 -36 62 -62 11 -28 9 -183
-2 -217 -15 -46 -99 -66 -156 -37 -37 19 -49 63 -46 170 1 58 7 88 20 108 18
26 65 47 96 41 8 -1 20 -3 26 -3z"/>
<path d="M1635 1861 c-2 -4 3 -40 10 -81 7 -41 15 -93 19 -115 3 -22 8 -51 11
-65 2 -14 7 -41 9 -60 3 -19 8 -57 11 -85 4 -27 13 -55 20 -61 11 -8 99 -11
136 -5 6 1 14 37 24 101 3 17 26 140 29 155 2 6 6 33 11 60 8 54 24 93 25 65
2 -20 6 -41 35 -195 14 -71 26 -140 28 -152 2 -12 6 -26 10 -30 11 -10 137
-11 143 -1 3 4 10 36 15 70 11 71 10 65 38 241 28 170 29 163 -18 165 -46 3
-47 1 -56 -58 -9 -64 -16 -110 -20 -129 -1 -9 -8 -58 -15 -109 -13 -96 -24
-107 -34 -37 -4 22 -16 87 -27 145 -11 58 -22 121 -25 140 -3 19 -8 38 -10 41
-2 3 -34 7 -72 7 l-69 1 -28 -147 c-15 -81 -29 -156 -31 -167 -14 -81 -23 -92
-30 -38 -2 15 -5 39 -7 53 -3 14 -8 52 -11 85 -4 33 -9 67 -11 75 -2 8 -7 35
-10 60 -10 78 -12 81 -56 78 -22 -1 -42 -4 -44 -7z"/>
<path d="M3307 1862 c-2 -4 -3 -113 -3 -242 l1 -234 39 -1 c21 -1 40 4 42 10
3 6 6 56 7 112 2 81 6 105 21 121 40 46 120 34 134 -20 4 -16 7 -73 6 -126
l-2 -97 44 0 c50 0 46 -14 45 152 0 96 -11 132 -50 167 -46 42 -138 36 -178
-12 l-22 -27 0 80 c1 132 4 123 -41 123 -22 0 -41 -2 -43 -6z"/>
<path d="M3074 1833 c-5 -2 -9 -26 -8 -53 2 -47 0 -50 -25 -51 -14 -1 -34 -1
-43 0 -15 2 -18 -6 -18 -37 l0 -40 43 2 42 1 1 -107 c0 -111 13 -157 43 -159
9 -1 40 -2 69 -3 l52 -1 0 37 c0 35 -2 37 -37 40 l-38 3 -1 93 c0 60 3 92 10
93 6 0 27 2 46 2 33 2 35 4 35 37 0 37 3 35 -70 39 -18 1 -21 7 -20 47 0 25
-4 49 -10 52 -11 7 -56 10 -71 5z"/>
<path d="M612 1723 c-19 -9 -36 -22 -39 -30 -9 -22 -23 -15 -23 12 0 22 -4 25
-39 25 -48 0 -46 11 -45 -265 l0 -210 45 -3 44 -3 -1 91 c-1 49 1 90 3 90 2 0
16 -11 31 -25 26 -24 49 -30 102 -25 105 9 168 146 119 260 -34 80 -127 119
-197 83z m99 -92 c47 -48 37 -130 -20 -164 -56 -33 -126 6 -135 74 -12 98 88
156 155 90z"/>
<path d="M987 1733 c-39 -6 -103 -70 -115 -115 -25 -89 13 -184 87 -220 56
-27 115 -27 170 1 34 18 71 57 59 65 -59 39 -59 39 -83 16 -33 -31 -84 -36
-116 -11 -15 11 -29 30 -32 41 -6 23 -11 22 141 22 l102 0 0 38 c0 114 -90
183 -213 163z m101 -93 c40 -38 29 -48 -50 -48 -85 0 -92 3 -77 29 21 41 92
51 127 19z"/>
<path d="M1428 1732 c-15 -2 -41 -16 -58 -32 l-30 -28 0 28 c0 27 -3 28 -43
28 l-42 0 0 -170 0 -171 38 -2 c24 -2 40 2 43 10 3 7 6 58 7 113 2 87 5 105
23 122 41 42 118 31 131 -19 4 -14 7 -71 7 -126 l1 -100 40 0 40 0 3 120 c2
72 -2 130 -8 146 -24 57 -84 89 -152 81z"/>
<path d="M2338 1715 c-103 -55 -119 -210 -30 -293 35 -33 69 -44 125 -43 55 2
91 17 125 54 l23 25 -35 21 -35 22 -20 -20 c-47 -47 -127 -32 -145 27 -9 26
-18 24 130 23 l112 0 -3 43 c-5 95 -62 154 -154 161 -37 3 -60 -2 -93 -20z
m129 -70 c11 -8 23 -23 26 -34 4 -18 -1 -19 -74 -20 -44 0 -79 3 -79 8 0 4 9
20 21 35 24 30 71 35 106 11z"/>
<path d="M2737 1727 c-38 -12 -107 -61 -107 -76 0 -5 15 -18 32 -29 l32 -21
26 31 c20 24 33 30 67 31 47 1 73 -16 73 -47 0 -18 -6 -22 -37 -24 -57 -4
-112 -12 -138 -22 -84 -32 -87 -137 -4 -178 49 -24 133 -15 156 18 16 23 35
18 31 -8 -2 -13 5 -17 37 -17 l40 0 0 137 c0 132 -1 137 -25 163 -14 15 -32
31 -42 36 -28 15 -101 18 -141 6z m123 -208 c0 -50 -79 -86 -131 -59 -24 14
-24 32 1 55 11 10 20 16 20 12 0 -3 11 -2 25 1 14 4 39 8 55 9 24 2 30 -2 30
-18z"/>
<path d="M3805 1728 c-97 -33 -139 -155 -88 -257 19 -39 34 -55 73 -74 41 -20
55 -23 97 -16 26 4 53 8 59 8 13 1 74 58 74 69 0 4 -14 15 -32 25 -30 17 -31
17 -55 -5 -45 -42 -131 -23 -146 33 -6 22 -11 21 142 20 l104 -1 -6 56 c-6 63
-42 119 -85 135 -39 15 -102 18 -137 7z m115 -90 c36 -39 27 -47 -55 -46 -42
0 -78 5 -81 9 -3 5 6 20 20 34 33 33 87 34 116 3z"/>
<path d="M4086 1721 c-2 -3 -3 -80 -2 -170 l1 -165 43 -1 42 -1 1 50 c0 28 0
74 -1 101 -2 91 14 112 92 117 36 2 37 3 36 40 0 35 -2 38 -30 38 -33 0 -67
-16 -85 -39 -11 -14 -12 -12 -13 10 0 24 -4 26 -40 26 -23 0 -42 -3 -44 -6z"/>
</g>
</svg>
